<svg width="217" height="44" viewBox="0 0 217 44" fill="none" xmlns="http://www.w3.org/2000/svg">
<path fill-rule="evenodd" clip-rule="evenodd" d="M0 18.4354C0 14.3995 3.27178 11.1277 7.30773 11.1277H15.7318H25.0054V16.6085C25.0054 17.2505 25.5259 17.7711 26.168 17.7711H31.4637V30.3935L25.5022 36.3725L18.3814 43.0159H6.97556C3.12306 43.0159 0 39.8929 0 36.0404V18.4354ZM7.28622 19.9302C7.28622 19.1964 7.88109 18.6015 8.6149 18.6015H22.8486C23.5824 18.6015 24.1773 19.1964 24.1773 19.9302V34.2135C24.1773 34.9473 23.5824 35.5421 22.8486 35.5421H8.6149C7.88109 35.5421 7.28622 34.9473 7.28622 34.2135V19.9302ZM31.4639 36.7047H25.1712V43.0159H31.4639V36.7047Z" fill="#FF3838"/>
<path d="M55.6403 43.0791V28.0442C55.6403 27.3171 55.6011 26.3934 55.5227 25.2731C55.4444 24.1332 55.1994 22.9933 54.7879 21.8534C54.3764 20.7135 53.7003 19.7604 52.7597 18.9939C51.8387 18.2274 50.5258 17.8441 48.821 17.8441C48.1351 17.8441 47.4003 17.9522 46.6164 18.1684C45.8326 18.3846 45.0978 18.8072 44.4119 19.4361C43.7261 20.0453 43.1578 20.9494 42.7071 22.1482C42.276 23.3471 42.0604 24.939 42.0604 26.924L37.475 24.7425C37.475 22.2268 37.9845 19.8684 39.0035 17.6673C40.0225 15.4661 41.5509 13.6875 43.5889 12.3314C45.6465 10.9753 48.2331 10.2973 51.3488 10.2973C53.8375 10.2973 55.8657 10.7198 57.4333 11.5649C59.001 12.41 60.2159 13.4811 61.0782 14.7782C61.96 16.0753 62.587 17.4314 62.9594 18.8465C63.3317 20.2419 63.557 21.5193 63.6354 22.6789C63.7138 23.8384 63.753 24.6835 63.753 25.2142V43.0791H55.6403ZM33.9478 43.0791V11.2406H41.061V21.7945H42.0604V43.0791H33.9478Z" fill="white"/>
<path d="M80.8778 44C77.958 44 75.4008 43.263 73.2061 41.789C71.0113 40.315 69.2967 38.3103 68.0622 35.7751C66.8472 33.2398 66.2397 30.3802 66.2397 27.1964C66.2397 23.9536 66.857 21.0744 68.0916 18.5587C69.3457 16.0234 71.0995 14.0286 73.353 12.5743C75.6065 11.1199 78.252 10.3928 81.2893 10.3928C84.3071 10.3928 86.8447 11.1298 88.9023 12.6038C90.9599 14.0778 92.5177 16.0824 93.5759 18.6177C94.6341 21.153 95.1632 24.0125 95.1632 27.1964C95.1632 30.3802 94.6243 33.2398 93.5465 35.7751C92.4883 38.3103 90.9011 40.315 88.7847 41.789C86.6684 43.263 84.0327 44 80.8778 44ZM82.1711 36.8658C83.9544 36.8658 85.3751 36.4629 86.4332 35.6571C87.511 34.8514 88.285 33.7213 88.7553 32.2669C89.2256 30.8126 89.4608 29.1224 89.4608 27.1964C89.4608 25.2703 89.2256 23.5802 88.7553 22.1258C88.285 20.6715 87.5306 19.5414 86.492 18.7356C85.473 17.9298 84.1307 17.5269 82.4651 17.5269C80.6819 17.5269 79.2122 17.9691 78.056 18.8535C76.9195 19.7183 76.0768 20.8876 75.5282 22.3617C74.9795 23.816 74.7051 25.4276 74.7051 27.1964C74.7051 28.9848 74.9697 30.6161 75.4988 32.0901C76.0279 33.5444 76.8411 34.704 77.9384 35.5687C79.0358 36.4335 80.4467 36.8658 82.1711 36.8658ZM89.4608 43.1156V21.3004H88.4614V0.664337H96.5153V43.1156H89.4608Z" fill="white"/>
<path d="M98.8618 43.0722V11.2338H105.916V19.0165L105.152 18.0142C105.564 16.9136 106.112 15.9113 106.798 15.0072C107.484 14.1032 108.327 13.3564 109.326 12.7668C110.09 12.2951 110.923 11.9315 111.824 11.676C112.726 11.4009 113.657 11.2338 114.617 11.1748C115.577 11.0962 116.537 11.1159 117.497 11.2338V18.7217C116.616 18.4466 115.587 18.3581 114.411 18.4564C113.255 18.535 112.207 18.8003 111.266 19.2524C110.325 19.6847 109.532 20.2645 108.885 20.9917C108.238 21.6992 107.749 22.5443 107.415 23.527C107.082 24.49 106.916 25.5808 106.916 26.7993V43.0722H98.8618Z" fill="white"/>
<path d="M135.254 43.0741C132.001 43.0741 129.13 42.3764 126.641 40.981C124.172 39.566 122.232 37.6301 120.821 35.1734C119.43 32.6971 118.734 29.867 118.734 26.6832C118.734 23.2045 119.42 20.1779 120.792 17.6033C122.164 15.0287 124.055 13.0339 126.465 11.6189C128.875 10.1842 131.648 9.46683 134.783 9.46683C138.115 9.46683 140.946 10.253 143.278 11.8252C145.61 13.3975 147.334 15.6085 148.451 18.4582C149.568 21.308 149.96 24.6589 149.627 28.5109H141.72V25.5629C141.72 22.3201 141.201 19.9912 140.162 18.5762C139.143 17.1415 137.468 16.4241 135.136 16.4241C132.412 16.4241 130.404 17.2594 129.11 18.9299C127.837 20.5808 127.2 23.0276 127.2 26.2705C127.2 29.2381 127.837 31.5376 129.11 33.1688C130.404 34.7804 132.295 35.5861 134.783 35.5861C136.351 35.5861 137.693 35.2422 138.81 34.5543C139.927 33.8665 140.78 32.874 141.368 31.5769L149.363 33.8763C148.167 36.785 146.276 39.0451 143.69 40.6567C141.123 42.2683 138.311 43.0741 135.254 43.0741ZM124.731 28.5109V22.556H145.777V28.5109H124.731Z" fill="white"/>
<path d="M159.732 43.0251L150.032 11.1277L157.851 11.1866L163.612 30.1718L169.461 11.1866H176.104L181.954 30.1718L187.715 11.1866H195.534L185.834 43.0251H179.72L172.783 22.2711L165.846 43.0251H159.732Z" fill="white"/>
<rect x="198.637" y="0.581297" width="17.7818" height="17.8374" rx="8.89089" stroke="#F8F8F8" stroke-width="1.16259"/>
<path d="M204.8 13.5V5.84682H208.031C208.105 5.84682 208.205 5.85036 208.329 5.85745C208.456 5.86099 208.57 5.87162 208.669 5.88933C209.126 5.9602 209.5 6.11078 209.79 6.34108C210.084 6.57139 210.3 6.86193 210.439 7.2127C210.577 7.55992 210.646 7.9479 210.646 8.37662C210.646 9.01793 210.486 9.56711 210.168 10.0242C209.849 10.4777 209.349 10.7576 208.669 10.8639L208.031 10.9064H206.245V13.5H204.8ZM209.115 13.5L207.606 10.3856L209.094 10.0986L210.752 13.5H209.115ZM206.245 9.55648H207.967C208.042 9.55648 208.123 9.55294 208.212 9.54585C208.3 9.53877 208.382 9.5246 208.456 9.50334C208.651 9.45019 208.802 9.36161 208.908 9.2376C209.014 9.11005 209.087 8.97009 209.126 8.81774C209.168 8.66184 209.19 8.5148 209.19 8.37662C209.19 8.23844 209.168 8.09317 209.126 7.94081C209.087 7.78491 209.014 7.64496 208.908 7.52095C208.802 7.3934 208.651 7.30305 208.456 7.2499C208.382 7.22864 208.3 7.21447 208.212 7.20738C208.123 7.2003 208.042 7.19675 207.967 7.19675H206.245V9.55648Z" fill="white"/>
</svg>
