<svg width="1309" height="265" viewBox="0 0 1309 265" fill="none" xmlns="http://www.w3.org/2000/svg">
<path fill-rule="evenodd" clip-rule="evenodd" d="M0 111C0 86.6995 19.6995 67 44 67H95H151V100C151 103.866 154.134 107 158 107H190V183L154 219L111 259H42C18.804 259 0 240.196 0 217V111ZM44 120C44 115.582 47.5817 112 52 112H138C142.418 112 146 115.582 146 120V206C146 210.418 142.418 214 138 214H52C47.5817 214 44 210.418 44 206V120ZM190 221H152V259H190V221Z" fill="#FF3838"/>
<path d="M335.995 259.38V168.855C335.995 164.477 335.758 158.915 335.285 152.17C334.812 145.307 333.333 138.443 330.848 131.58C328.363 124.717 324.28 118.978 318.6 114.363C313.038 109.748 305.11 107.44 294.815 107.44C290.673 107.44 286.236 108.091 281.502 109.393C276.769 110.694 272.332 113.238 268.19 117.025C264.048 120.693 260.617 126.137 257.895 133.355C255.292 140.573 253.99 150.158 253.99 162.11L226.3 148.975C226.3 133.828 229.377 119.628 235.53 106.375C241.683 93.1217 250.913 82.4125 263.22 74.2475C275.645 66.0825 291.265 62 310.08 62C325.108 62 337.356 64.5442 346.823 69.6325C356.289 74.7209 363.626 81.17 368.833 88.98C374.158 96.79 377.944 104.955 380.193 113.475C382.441 121.877 383.802 129.568 384.275 136.55C384.748 143.532 384.985 148.62 384.985 151.815V259.38H335.995ZM205 259.38V67.68H247.955V131.225H253.99V259.38H205Z" fill="white"/>
<path d="M488.395 264.925C470.763 264.925 455.321 260.488 442.068 251.613C428.814 242.738 418.46 230.667 411.005 215.402C403.668 200.137 400 182.92 400 163.75C400 144.225 403.728 126.889 411.183 111.743C418.756 96.4775 429.347 84.4667 442.955 75.71C456.563 66.9533 472.538 62.575 490.88 62.575C509.103 62.575 524.427 67.0125 536.852 75.8875C549.277 84.7625 558.685 96.8325 565.075 112.098C571.465 127.363 574.66 144.58 574.66 163.75C574.66 182.92 571.406 200.137 564.898 215.402C558.508 230.667 548.922 242.738 536.143 251.613C523.362 260.488 507.447 264.925 488.395 264.925ZM496.205 221.97C506.973 221.97 515.553 219.544 521.943 214.693C528.451 209.841 533.125 203.037 535.965 194.28C538.805 185.523 540.225 175.347 540.225 163.75C540.225 152.153 538.805 141.977 535.965 133.22C533.125 124.463 528.569 117.659 522.298 112.808C516.144 107.956 508.038 105.53 497.98 105.53C487.212 105.53 478.337 108.193 471.355 113.518C464.492 118.724 459.403 125.765 456.09 134.64C452.777 143.397 451.12 153.1 451.12 163.75C451.12 174.518 452.717 184.34 455.912 193.215C459.107 201.972 464.018 208.953 470.645 214.16C477.272 219.367 485.792 221.97 496.205 221.97ZM540.225 259.6V128.25H534.19V4H582.825V259.6H540.225Z" fill="white"/>
<path d="M597 259.339V67.639H639.6V114.499L634.985 108.464C637.47 101.837 640.783 95.8023 644.925 90.359C649.067 84.9157 654.155 80.419 660.19 76.869C664.805 74.029 669.834 71.8398 675.277 70.3015C680.721 68.6448 686.342 67.639 692.14 67.284C697.938 66.8107 703.737 66.929 709.535 67.639V112.724C704.21 111.067 697.997 110.535 690.897 111.127C683.916 111.6 677.585 113.197 671.905 115.919C666.225 118.522 661.432 122.013 657.527 126.392C653.622 130.652 650.664 135.74 648.652 141.657C646.641 147.455 645.635 154.022 645.635 161.359V259.339H597Z" fill="white"/>
<path d="M816.755 259.35C797.112 259.35 779.776 255.149 764.747 246.748C749.837 238.228 738.122 226.572 729.602 211.78C721.201 196.87 717 179.83 717 160.66C717 139.715 721.142 121.492 729.425 105.99C737.708 90.4883 749.127 78.4775 763.682 69.9575C778.237 61.3192 794.982 57 813.915 57C834.032 57 851.131 61.7333 865.212 71.2C879.294 80.6667 889.708 93.9792 896.453 111.137C903.198 128.296 905.564 148.472 903.552 171.665H855.805V153.915C855.805 134.39 852.669 120.368 846.397 111.848C840.244 103.209 830.127 98.89 816.045 98.89C799.597 98.89 787.467 103.919 779.657 113.978C771.966 123.918 768.12 138.65 768.12 158.175C768.12 176.043 771.966 189.888 779.657 199.71C787.467 209.413 798.887 214.265 813.915 214.265C823.382 214.265 831.487 212.194 838.232 208.053C844.977 203.911 850.125 197.935 853.675 190.125L901.955 203.97C894.737 221.483 883.318 235.092 867.698 244.795C852.196 254.498 835.215 259.35 816.755 259.35ZM753.21 171.665V135.81H880.3V171.665H753.21Z" fill="white"/>
<path d="M964.575 259.055L906 67L953.215 67.355L988.005 181.665L1023.33 67.355H1063.44L1098.77 181.665L1133.56 67.355H1180.77L1122.2 259.055H1085.28L1043.39 134.095L1001.5 259.055H964.575Z" fill="white"/>
<rect x="1199.5" y="3.5" width="106" height="107" rx="53" stroke="#F8F8F8" stroke-width="7"/>
<path d="M1235.48 82V35.92H1254.94C1255.38 35.92 1255.98 35.9413 1256.73 35.984C1257.5 36.0053 1258.18 36.0693 1258.78 36.176C1261.53 36.6027 1263.78 37.5093 1265.53 38.896C1267.3 40.2827 1268.6 42.032 1269.43 44.144C1270.26 46.2347 1270.68 48.5707 1270.68 51.152C1270.68 55.0133 1269.72 58.32 1267.8 61.072C1265.88 63.8027 1262.87 65.488 1258.78 66.128L1254.94 66.384H1244.18V82H1235.48ZM1261.46 82L1252.38 63.248L1261.34 61.52L1271.32 82H1261.46ZM1244.18 58.256H1254.55C1255 58.256 1255.49 58.2347 1256.02 58.192C1256.56 58.1493 1257.05 58.064 1257.5 57.936C1258.67 57.616 1259.58 57.0827 1260.22 56.336C1260.86 55.568 1261.29 54.7253 1261.53 53.808C1261.78 52.8693 1261.91 51.984 1261.91 51.152C1261.91 50.32 1261.78 49.4453 1261.53 48.528C1261.29 47.5893 1260.86 46.7467 1260.22 46C1259.58 45.232 1258.67 44.688 1257.5 44.368C1257.05 44.24 1256.56 44.1547 1256.02 44.112C1255.49 44.0693 1255 44.048 1254.55 44.048H1244.18V58.256Z" fill="white"/>
</svg>
