<svg width="193" height="194" viewBox="0 0 193 194" fill="none" xmlns="http://www.w3.org/2000/svg">
<path d="M152 1H152.75V0.25H152V1ZM191 41H191.75V40.25H191V41ZM191 117L191.53 117.53L191.75 117.311V117H191ZM155 153L155.511 153.549L155.521 153.54L155.53 153.53L155 153ZM112 193V193.75H112.295L112.511 193.549L112 193ZM154 155V154.25H153.25V155H154ZM192 155H192.75V154.25H192V155ZM154 193H153.25V193.75H154V193ZM192 193V193.75H192.75V193H192ZM45 0.25C20.2853 0.25 0.25 20.2853 0.25 45H1.75C1.75 21.1137 21.1137 1.75 45 1.75V0.25ZM96 0.25H45V1.75H96V0.25ZM152 0.25H96V1.75H152V0.25ZM152.75 34V1H151.25V34H152.75ZM159 40.25C155.548 40.25 152.75 37.4517 152.75 34H151.25C151.25 38.2802 154.72 41.75 159 41.75V40.25ZM191 40.25H159V41.75H191V40.25ZM191.75 117V41H190.25V117H191.75ZM155.53 153.53L191.53 117.53L190.47 116.47L154.47 152.47L155.53 153.53ZM112.511 193.549L155.511 153.549L154.489 152.451L111.489 192.451L112.511 193.549ZM43 193.75H112V192.25H43V193.75ZM0.25 151C0.25 174.61 19.3898 193.75 43 193.75V192.25C20.2183 192.25 1.75 173.782 1.75 151H0.25ZM0.25 45V151H1.75V45H0.25ZM53 45.25C48.1675 45.25 44.25 49.1675 44.25 54H45.75C45.75 49.9959 48.9959 46.75 53 46.75V45.25ZM139 45.25H53V46.75H139V45.25ZM147.75 54C147.75 49.1675 143.832 45.25 139 45.25V46.75C143.004 46.75 146.25 49.9959 146.25 54H147.75ZM147.75 140V54H146.25V140H147.75ZM139 148.75C143.832 148.75 147.75 144.832 147.75 140H146.25C146.25 144.004 143.004 147.25 139 147.25V148.75ZM53 148.75H139V147.25H53V148.75ZM44.25 140C44.25 144.832 48.1675 148.75 53 148.75V147.25C48.9959 147.25 45.75 144.004 45.75 140H44.25ZM44.25 54V140H45.75V54H44.25ZM154 155.75H192V154.25H154V155.75ZM154.75 193V155H153.25V193H154.75ZM192 192.25H154V193.75H192V192.25ZM191.25 155V193H192.75V155H191.25Z" fill="#FF3838"/>
</svg>
