<svg width="193" height="194" viewBox="0 0 193 194" fill="none" xmlns="http://www.w3.org/2000/svg">
<path d="M152 1H152.15V0.85H152V1ZM191 41H191.15V40.85H191V41ZM191 117L191.106 117.106L191.15 117.062V117H191ZM155 153L155.102 153.11L155.106 153.106L155 153ZM112 193V193.15H112.059L112.102 193.11L112 193ZM154 155V154.85H153.85V155H154ZM192 155H192.15V154.85H192V155ZM154 193H153.85V193.15H154V193ZM192 193V193.15H192.15V193H192ZM45 0.85C20.6166 0.85 0.85 20.6166 0.85 45H1.15C1.15 20.7823 20.7823 1.15 45 1.15V0.85ZM96 0.85H45V1.15H96V0.85ZM152 0.85H96V1.15H152V0.85ZM152.15 34V1H151.85V34H152.15ZM159 40.85C155.217 40.85 152.15 37.7831 152.15 34H151.85C151.85 37.9488 155.051 41.15 159 41.15V40.85ZM191 40.85H159V41.15H191V40.85ZM191.15 117V41H190.85V117H191.15ZM155.106 153.106L191.106 117.106L190.894 116.894L154.894 152.894L155.106 153.106ZM112.102 193.11L155.102 153.11L154.898 152.89L111.898 192.89L112.102 193.11ZM43 193.15H112V192.85H43V193.15ZM0.85 151C0.85 174.279 19.7212 193.15 43 193.15V192.85C19.8869 192.85 1.15 174.113 1.15 151H0.85ZM0.85 45V151H1.15V45H0.85ZM53 45.85C48.4989 45.85 44.85 49.4989 44.85 54H45.15C45.15 49.6646 48.6646 46.15 53 46.15V45.85ZM139 45.85H53V46.15H139V45.85ZM147.15 54C147.15 49.4989 143.501 45.85 139 45.85V46.15C143.335 46.15 146.85 49.6646 146.85 54H147.15ZM147.15 140V54H146.85V140H147.15ZM139 148.15C143.501 148.15 147.15 144.501 147.15 140H146.85C146.85 144.335 143.335 147.85 139 147.85V148.15ZM53 148.15H139V147.85H53V148.15ZM44.85 140C44.85 144.501 48.4989 148.15 53 148.15V147.85C48.6646 147.85 45.15 144.335 45.15 140H44.85ZM44.85 54V140H45.15V54H44.85ZM154 155.15H192V154.85H154V155.15ZM154.15 193V155H153.85V193H154.15ZM192 192.85H154V193.15H192V192.85ZM191.85 155V193H192.15V155H191.85Z" fill="#FF3838"/>
</svg>
