<svg width="16" height="16" viewBox="0 0 16 16" fill="none" xmlns="http://www.w3.org/2000/svg">
<path d="M8.99383 6.33325H5.8335C5.55736 6.33325 5.3335 6.10939 5.3335 5.83325C5.3335 5.55711 5.55736 5.33325 5.8335 5.33325H10.1668C10.443 5.33325 10.6668 5.55711 10.6668 5.83325V10.1666C10.6668 10.4427 10.443 10.6666 10.1668 10.6666C9.8907 10.6666 9.66683 10.4427 9.66683 10.1666V7.07419L6.18536 10.5219C5.98916 10.7162 5.67258 10.7147 5.47826 10.5185C5.28396 10.3223 5.2855 10.0057 5.48171 9.81139L8.99383 6.33325ZM1.3335 7.99992C1.3335 11.6818 4.31826 14.6666 8.00016 14.6666C11.682 14.6666 14.6668 11.6818 14.6668 7.99992C14.6668 4.31802 11.682 1.33325 8.00016 1.33325C4.31826 1.33325 1.3335 4.31802 1.3335 7.99992ZM8.00016 13.6666C4.87055 13.6666 2.3335 11.1295 2.3335 7.99992C2.3335 4.87031 4.87055 2.33325 8.00016 2.33325C11.1298 2.33325 13.6668 4.87031 13.6668 7.99992C13.6668 11.1295 11.1298 13.6666 8.00016 13.6666Z" fill="#DD0000"/>
</svg>
